<svg width="8" height="8" viewBox="0 0 8 8" fill="none" xmlns="http://www.w3.org/2000/svg">
<path d="M7.42671 4.17683L6.42671 5.17683C6.32896 5.27458 6.17096 5.27458 6.07321 5.17683C5.97546 5.07908 5.97546 4.92108 6.07321 4.82333L6.64646 4.25008H4.24996V6.64658L4.82321 6.07333C4.92096 5.97558 5.07896 5.97558 5.17671 6.07333C5.27446 6.17108 5.27446 6.32908 5.17671 6.42683L4.17671 7.42683C4.08221 7.52158 3.92346 7.52733 3.82296 7.42683L2.82296 6.42683C2.72521 6.32908 2.72521 6.17108 2.82296 6.07333C2.92071 5.97558 3.07871 5.97558 3.17646 6.07333L3.74996 6.64658V4.25008H1.35346L1.92671 4.82333C2.02446 4.92108 2.02446 5.07908 1.92671 5.17683C1.82896 5.27458 1.67096 5.27458 1.57321 5.17683L0.57321 4.17683C0.47646 4.08008 0.47571 3.92058 0.57321 3.82308L1.57321 2.82308C1.67096 2.72533 1.82896 2.72533 1.92671 2.82308C2.02446 2.92083 2.02446 3.07883 1.92671 3.17658L1.35346 3.75008H3.74996V1.35358L3.17671 1.92683C3.07896 2.02458 2.92096 2.02458 2.82321 1.92683C2.72546 1.82908 2.72546 1.67108 2.82321 1.57333L3.82321 0.573332C3.91996 0.476582 4.07946 0.475832 4.17696 0.573332L5.17696 1.57333C5.27471 1.67108 5.27471 1.82908 5.17696 1.92683C5.12796 1.97558 5.06396 2.00008 4.99996 2.00008C4.93596 2.00008 4.87196 1.97558 4.82321 1.92683L4.24996 1.35358V3.75008H6.64646L6.07321 3.17683C5.97546 3.07908 5.97546 2.92108 6.07321 2.82333C6.17096 2.72558 6.32896 2.72558 6.42671 2.82333L7.42671 3.82333C7.52421 3.92058 7.52346 4.08033 7.42671 4.17683Z" fill="black"/>
</svg>
