<svg width="12" height="12" viewBox="0 0 12 12" fill="none" xmlns="http://www.w3.org/2000/svg">
<path d="M5.5 0.166504C3.97072 0.166697 2.5033 0.770433 1.41667 1.8465V0.749837C1.41667 0.595128 1.35521 0.446754 1.24581 0.337358C1.13642 0.227962 0.988043 0.166504 0.833333 0.166504C0.678624 0.166504 0.530251 0.227962 0.420854 0.337358C0.311458 0.446754 0.25 0.595128 0.25 0.749837V3.6665C0.25 3.82121 0.311458 3.96959 0.420854 4.07898C0.530251 4.18838 0.678624 4.24984 0.833333 4.24984H3.75C3.90471 4.24984 4.05308 4.18838 4.16248 4.07898C4.27187 3.96959 4.33333 3.82121 4.33333 3.6665C4.33333 3.51179 4.27187 3.36342 4.16248 3.25403C4.05308 3.14463 3.90471 3.08317 3.75 3.08317H1.86922C2.46791 2.34051 3.28012 1.79951 4.19614 1.53327C5.11215 1.26702 6.08782 1.28836 6.99132 1.5944C7.89482 1.90044 8.68261 2.47643 9.24826 3.24455C9.8139 4.01268 10.1301 4.93591 10.1543 5.88953C10.1784 6.84315 9.9092 7.7812 9.38309 8.57693C8.85699 9.37266 8.09932 9.98773 7.21244 10.339C6.32557 10.6904 5.35223 10.761 4.42392 10.5414C3.49562 10.3218 2.6571 9.8225 2.02164 9.11105C1.97078 9.05316 1.90894 9.00593 1.83972 8.97207C1.77049 8.93822 1.69525 8.91842 1.61833 8.91381C1.5414 8.9092 1.46433 8.91988 1.39156 8.94523C1.31879 8.97058 1.25176 9.0101 1.19435 9.0615C1.13694 9.1129 1.09028 9.17516 1.05707 9.2447C1.02386 9.31424 1.00476 9.38966 1.00086 9.46663C0.996968 9.54359 1.00836 9.62056 1.03438 9.69309C1.06041 9.76562 1.10054 9.83228 1.15247 9.88921C1.80123 10.6144 2.62107 11.1657 3.53735 11.4931C4.45364 11.8205 5.43726 11.9134 6.39865 11.7635C7.36004 11.6136 8.26866 11.2256 9.04178 10.6348C9.81491 10.0441 10.428 9.26926 10.8252 8.38101C11.2223 7.49276 11.391 6.51927 11.3158 5.54917C11.2407 4.57907 10.924 3.64318 10.3948 2.82672C9.86547 2.01026 9.14037 1.33917 8.28546 0.874538C7.43056 0.409911 6.47301 0.166512 5.5 0.166504Z" fill="black"/>
</svg>
