<svg width="15" height="14" viewBox="0 0 15 14" fill="none" xmlns="http://www.w3.org/2000/svg">
  <g clip-path="url(#clip0_4949_5397)">
    <path d="M14.3396 13.0658L10.3897 9.1159C12.1893 6.92635 12.0669 3.67602 10.0219 1.63109C7.84645 -0.544349 4.30678 -0.544349 2.13134 1.63109C-0.0441045 3.80653 -0.0441045 7.34621 2.13134 9.52165C4.17572 11.566 7.42563 11.6898 9.61614 9.88945L13.566 13.8393C13.7796 14.0529 14.1259 14.0529 14.3395 13.8393C14.5532 13.6257 14.5532 13.2794 14.3396 13.0658ZM9.24837 8.7481C7.49946 10.497 4.6538 10.497 2.90489 8.7481C1.15599 6.99919 1.15599 4.15353 2.90489 2.40462C4.65374 0.655796 7.49941 0.655659 9.24837 2.40462C10.9973 4.15353 10.9973 6.99919 9.24837 8.7481Z" fill="#292D32"/>
    <path d="M8.75498 5.3H3.39867C3.09658 5.3 2.85168 5.545 2.85168 5.847C2.85168 6.149 3.09658 6.394 3.39867 6.394H8.75498C9.05708 6.394 9.30197 6.149 9.30197 5.847C9.30197 5.545 9.05708 5.3 8.75498 5.3Z" fill="#292D32"/>
  </g>
  <defs>
    <clipPath id="clip0_4949_5397">
      <rect width="14" height="14" fill="white" transform="translate(0.5)"/>
    </clipPath>
  </defs>
</svg>
